<?xml version="1.0" encoding="utf-8"?>
<!-- Generator: Adobe Illustrator 16.0.0, SVG Export Plug-In . SVG Version: 6.00 Build 0)  -->
<!DOCTYPE svg PUBLIC "-//W3C//DTD SVG 1.1//EN" "http://www.w3.org/Graphics/SVG/1.1/DTD/svg11.dtd">
<svg version="1.1" id="Layer_1" xmlns="http://www.w3.org/2000/svg" xmlns:xlink="http://www.w3.org/1999/xlink" x="0px" y="0px"
	 width="100px" height="100px" viewBox="0 0 100 100" enable-background="new 0 0 100 100" xml:space="preserve">
<g>
	<path d="M82.683,33.886l-3.431-0.954v-2.696c0-5.822-4.735-10.559-10.557-10.559H43.028l4.515-3.547
		c0.651-0.512,0.765-1.455,0.253-2.106s-1.456-0.765-2.106-0.253l-5.498,4.32v-3.14c0-0.829-0.672-1.5-1.5-1.5s-1.5,0.671-1.5,1.5
		v4.846c-5.112,0.732-9.059,5.127-9.059,10.439v31.857c-0.808,0.196-1.514,0.294-2.107,0.294c-1.577,0-1.642-0.646-1.693-1.164
		c-0.078-0.795-0.809-1.39-1.566-1.349c-0.799,0.04-1.426,0.699-1.426,1.498c0,0.113,0.143,11.186,12.353,12.688
		c1.537,0.829,3.259,1.266,4.999,1.266h11.92l-2.048,7.74c-0.212,0.801,0.266,1.622,1.066,1.834c0.129,0.034,0.258,0.05,0.385,0.05
		c0.664,0,1.271-0.444,1.449-1.117l2.251-8.508h4.734l1.992,8.468c0.162,0.691,0.778,1.157,1.459,1.157
		c0.113,0,0.229-0.013,0.345-0.041c0.807-0.189,1.306-0.997,1.116-1.804l-1.831-7.78h7.165c5.821,0,10.557-4.736,10.557-10.558
		V41.402l4.19-5.121c0.32-0.392,0.422-0.92,0.269-1.403C83.558,34.395,83.171,34.022,82.683,33.886z M65.299,38.53
		c-2.7,0-4.897-2.197-4.897-4.896s2.197-4.896,4.897-4.896s4.896,2.197,4.896,4.896S67.999,38.53,65.299,38.53z"/>
	<circle cx="65.299" cy="33.633" r="1.896"/>
</g>
</svg>
